<svg xmlns="http://www.w3.org/2000/svg" xmlnsXlink="http://www.w3.org/1999/xlink" width="288" height="288"><svg xmlns="http://www.w3.org/2000/svg" width="288" height="288" viewBox="0 0 517.24 704.08"><defs><clipPath id="a" transform="translate(0 27.62)"><polygon fill="#ffaf0c" points="254.34 337.16 340.6 440.4 329.88 660.43 242.05 627.83 12.53 337.16 242.05 46.49 329.88 13.89 340.6 233.92 254.34 337.16" class="colorffdb82 svgShape"/></clipPath></defs><g class="color000 svgShape" data-name="Layer 2"><polygon fill="#ffaf0c" points="254.34 364.78 340.6 468.02 329.88 688.05 242.05 655.45 12.53 364.78 242.05 74.11 329.88 41.51 340.6 261.54 254.34 364.78" class="colorffdb82 svgShape"/><g class="color000 svgShape" clip-path="url(#a)"><polygon fill="#ffaf0c" points="254.34 364.78 340.6 468.02 329.88 688.05 242.05 655.45 12.53 364.78 242.05 74.11 329.88 41.51 340.6 261.54 254.34 364.78" class="colorffb52f svgShape"/><polygon fill="#a06c18" points="240.11 704.09 297.93 523.38 156.55 364.78 292.16 204.1 242.05 74.11 248.33 41.51 404.48 0 481.19 688.05 240.11 704.09" class="coloreb6d31 svgShape"/></g><path fill="#a06c18" d="M12.53 326.79c9.65-.15 19.3.08 28.95.36s19.3.77 29 1.33 19.3 1.25 28.95 2l7.23.59a68.49 68.49 0 017.24.9 59.34 59.34 0 017.24 1.72 40.26 40.26 0 017.24 2.93v1.06a40.26 40.26 0 01-7.24 2.93 61.25 61.25 0 01-7.24 1.72 68.49 68.49 0 01-7.24.9l-7.23.59c-9.65.76-19.3 1.45-28.95 2s-19.3 1-29 1.33-19.3.51-28.95.36zM253.18 96.45l25.25 69.66 1.25 3.44-2.83 3.38c-11.2 13.36-22.59 26.56-34 39.73s-23 26.25-34.52 39.31-23.17 26.08-34.87 39l-8.75 9.73c-2.92 3.24-5.81 6.5-8.84 9.65a167.58 167.58 0 01-19.46 17.81 169.29 169.29 0 0114.17-22.25c2.59-3.52 5.3-6.93 8-10.37l8.07-10.3q16.09-20.64 32.4-41.09t32.77-40.78c11-13.54 22-27 33.25-40.38l-1.57 6.82zM253.18 578.59l10.29-73.37L265 512c-11.22-13.34-22.26-26.84-33.25-40.38S209.9 444.51 199 430.87s-21.67-27.33-32.4-41.09l-8.07-10.3c-2.69-3.43-5.4-6.84-8-10.37a168.52 168.52 0 01-14.17-22.24 168.39 168.39 0 0119.46 17.8c3 3.15 5.92 6.42 8.84 9.66l8.75 9.73c11.7 12.94 23.28 26 34.87 39s23.09 26.15 34.52 39.32 22.82 26.37 34 39.73l2.83 3.37-1.25 3.45z" class="coloreb6d31 svgShape" transform="translate(0 27.62)"/><path fill="#7b540c" d="M264.17,337.16c14.38,16.16,28.57,32.18,42.54,48.26s27.74,32.27,41.44,48.67l2.46,3-.19,3.84-10.72,220-.65,13.41-12.59-4.67-87.83-32.6-2.58-1-1.71-2.17L4.81,343.25,0,337.16l4.81-6.09L234.34,40.4l1.71-2.17,2.58-1,87.83-32.6L339.05,0l.65,13.41,10.72,220,.19,3.84-2.46,2.95c-13.7,16.4-27.46,32.58-41.44,48.66S278.55,321,264.17,337.16Zm-19.66,0c14.37-18.25,28.93-36.65,43.72-55s29.78-36.56,44.83-54.57l-2.28,6.78-10.72-220,13.24,8.74-87.83,32.6,4.3-3.13L30.24,351.15v-28L249.77,621.74l-4.3-3.13,87.83,32.6L320.06,660l10.72-220,2.28,6.78c-15.05-18-30.05-36.24-44.83-54.57S258.88,355.41,244.51,337.16Z" class="coloraf4d22 svgShape" transform="translate(0 27.62)"/><rect width="110.64" height="110.64" x="379.72" y="281.84" fill="#ffaf0c" class="colorffb52f svgShape" transform="rotate(-45 468.377 350.972)"/><path fill="#7b540c" d="M506.56,337.16c-14.31-12.26-28.47-23.89-42.12-35.09s-26.79-22.06-39.52-33h20.25l-83.61,72.86v-9.5l82,74.49h-17c12.66-11.42,25.59-22.7,39-34.21S492.64,349.42,506.56,337.16Zm10.68,0q-19.9,20.26-40.08,40.36t-40.32,39.67L435,419l-1.78-1.77-78.43-78.05-2-2,2-2L433.07,257l1.95-2,2,2q20.12,19.69,40.26,39.8T517.24,337.16Z" class="coloraf4d22 svgShape" transform="translate(0 27.62)"/><polygon fill="#a06c18" points="377.32 364.78 492.94 364.78 435.13 398.29 377.32 364.78" class="coloreb6d31 svgShape"/><polygon fill="#7b540c" points="377.32 364.78 492.94 364.78 435.13 331.27 377.32 364.78" class="coloraf4d22 svgShape"/></g></svg></svg>