<svg xmlns="http://www.w3.org/2000/svg" xmlns:xlink="http://www.w3.org/1999/xlink" width="22.89" height="19.96" viewBox="0 0 22.89 19.96"><defs><style>.a{fill:url(#a);}</style><radialGradient id="a" cx="0.5" cy="0.5" r="0.641" gradientTransform="matrix(0.644, -0.675, 0.588, 0.738, -0.116, 0.468)" gradientUnits="objectBoundingBox"><stop offset="0" stop-color="#b4d1ff"/><stop offset="1" stop-color="#4d6ea0"/></radialGradient></defs><path class="a" d="M22.667,17.771l-.8-.806a.8.8,0,0,0-1.117,0l-2.588-4.054L19.8,11.27a.717.717,0,0,0,.166-.971l-1.11-1.11a.723.723,0,0,0-.974.163l-.551.554a3.6,3.6,0,0,1-.616,2.329L14.222,8.9l5.085-3.8L19.962,0l-5.1.653L11.451,5.209,8.04.653,2.94,0l.653,5.1L8.68,8.9l-2.5,3.335a3.6,3.6,0,0,1-.616-2.329l-.554-.554a.719.719,0,0,0-.972-.163L2.93,10.3a.72.72,0,0,0,.163.971l1.641,1.641L2.156,16.955a.8.8,0,0,0-1.117,0l-.806.816a.8.8,0,0,0,0,1.13l.826.828a.808.808,0,0,0,1.132,0l.8-.806A.8.8,0,0,0,3.007,17.8l4.044-2.581,1.641,1.639a.717.717,0,0,0,.972.166l1.11-1.11a.718.718,0,0,0-.166-.971l-.551-.554a3.6,3.6,0,0,1-2.329-.616l3.723-2.788,3.723,2.788a3.6,3.6,0,0,1-2.319.616l-.554.554a.719.719,0,0,0-.163.971l1.11,1.11a.718.718,0,0,0,.972-.166l1.641-1.639L19.9,17.8a.8.8,0,0,0,0,1.117l.806.806a.8.8,0,0,0,1.13,0l.826-.828A.8.8,0,0,0,22.667,17.771Z" transform="translate(-0.001)"/></svg>